# xmcd
#
# Track frame offsets:
# 150
# 22342
# 47583
# 64546
# 92541
# 106170
# 139104
# 159833
# 187657
# 198923
# 215699
# 233726
# 256385
# 273271
# 303875
# 323854
#
# Disc length: 4570 seconds
#
#
# Revision: 0
# Processed by: cddbd v1.5.1PL0 Copyright (c) Steve Scherf et al.
# Submitted via: FreeRIP 2.90 
#
DISCID=cf11d810
DTITLE=Antonella Ruggiero - sacrarmonia live [il viaggio]
DYEAR=2004
DGENRE=Folk
TTITLE0=corale cantico
TTITLE1=in voto
TTITLE2=aria sulla IV corda
TTITLE3=sanctus
TTITLE4=god rest you merry gentleman
TTITLE5=la danza - tum hi shiva
TTITLE6=il canto dell'amore
TTITLE7=il viaggio
TTITLE8=lo frate sole
TTITLE9=balada do sino
TTITLE10=kyrie (missa luba)
TTITLE11=occhi di bambino
TTITLE12=ave maria
TTITLE13=gloria (misa criolla)
TTITLE14=panis angelicus
TTITLE15=guantanamera
EXTD=
EXTT0=
EXTT1=
EXTT2=
EXTT3=
EXTT4=
EXTT5=
EXTT6=
EXTT7=
EXTT8=
EXTT9=
EXTT10=
EXTT11=
EXTT12=
EXTT13=
EXTT14=
EXTT15=
PLAYORDER=
